<svg xmlns="http://www.w3.org/2000/svg" viewBox="0 0 590 119" width="590" height="119">
	<style>
		tspan { white-space:pre }
		.shp0 { fill: #9e9e9e } 
		.shp1 { fill: #636363 } 
	</style>
	<g id="Background">
		<path id="Path 0" fill-rule="evenodd" class="shp0" d="M4.1 0L113 0L114.51 2.25C115.78 4.15 116.02 10.2 116.02 41.5C116.03 72.08 115.78 78.85 114.6 80.5C113.19 82.46 112.02 82.5 58.5 82.5C4.98 82.5 3.81 82.46 2.4 80.5C1.22 78.85 0.95 71.97 0.89 41.47C0.81 8.59 0.99 4.2 2.45 2.22L4.1 0ZM11 73L106 73L106 10L11 10L11 73Z" />
		<path id="Path 1" fill-rule="evenodd" class="shp1" d="M490.75 20.06C491.44 20.03 492.76 21.24 493.68 22.75C494.99 24.88 495.23 26.85 494.17 37.5L496.23 33.5C497.37 31.3 499.46 27.98 500.9 26.12C502.33 24.27 504.74 22.13 506.25 21.37C507.76 20.62 509.9 20.23 511 20.5C512.21 20.8 513.34 22.28 513.87 24.25C514.35 26.04 514.39 29.75 513.96 32.5C513.53 35.25 512.2 39.98 511 43C509.79 46.02 505.88 54.13 502.3 61C497.01 71.18 495.92 74.06 496.43 76.5C496.78 78.15 497.39 79.82 497.78 80.2C498.18 80.59 500.3 80.1 502.5 79.12C506.23 77.47 506.54 77.01 507.06 72.42C507.37 69.72 508.72 65.27 510.06 62.55C511.42 59.79 513.83 56.8 515.5 55.8C517.15 54.82 519.85 53.99 521.5 53.97C523.15 53.95 525.63 54.77 527 55.8C528.38 56.83 529.84 58.87 530.25 60.34C530.77 62.2 530.4 64.2 529 67C527.9 69.2 525.54 72.09 523.75 73.43C521.96 74.76 519.15 76.37 514.5 78.16L517 80.12C518.38 81.2 520.17 82.06 521 82.03C521.83 82 524.86 80.86 527.75 79.49C532.5 77.24 533 76.69 532.99 73.75C532.98 71.96 533.75 68.25 534.7 65.5C535.66 62.75 537.93 59.04 539.75 57.25C542.41 54.65 543.9 53.99 547.28 53.96C550 53.93 552.39 54.61 554 55.87C555.81 57.29 556.5 58.78 556.5 61.31C556.5 63.41 555.71 65.64 554.5 66.93C553.4 68.1 551.94 69.05 551.25 69.03C550.56 69.01 549.95 68.44 549.9 67.75C549.84 67.06 549.84 65.04 549.9 63.25C549.98 60.79 549.57 59.99 548.25 59.97C547.29 59.95 545.78 60.74 544.89 61.72C544.01 62.7 542.76 65.08 542.13 67C541.49 68.92 540.97 72.08 540.98 74C540.98 75.92 541.66 78.51 542.49 79.75C543.5 81.25 545 82 547 82C548.65 82 551.24 81.36 552.75 80.59C554.26 79.81 557.08 77.57 559 75.62C560.92 73.67 562.73 72.24 563 72.44C563.27 72.64 563.61 68.8 564 55L559.38 54.25C556.84 53.84 554.48 53.11 554.13 52.64C553.78 52.16 554.17 51.38 555 50.9C555.83 50.42 558.3 50.03 564.5 50.05L567.25 42.02C568.76 37.61 571.24 32.18 572.75 29.95C574.26 27.72 576.29 25.69 577.25 25.45C578.21 25.2 579.79 25.21 580.75 25.46C581.71 25.71 583.17 27.13 584 28.61C584.83 30.09 585.47 33.15 585.43 35.4C585.39 37.87 584.2 41.76 579.5 50.83L584.75 51.41C589.14 51.9 590 52.33 590 54C590 55.82 589.34 56 582.75 55.98C575.83 55.96 575.4 56.1 573.25 58.98C571.39 61.48 571 63.28 571 69.5C571 73.63 571.45 77.9 572 79C572.67 80.33 574 81 576 81C577.65 81 580.8 80.1 583 79C585.2 77.9 587.23 76.55 587.5 76C587.77 75.45 588.45 75 589 75C589.55 75 590.01 76.46 590.02 78.25C590.03 81.24 589.52 81.76 583.77 84.7C580.32 86.45 576.83 87.97 576 88.06C575.17 88.16 573.71 88.18 572.75 88.12C571.79 88.05 569.87 86.76 568.48 85.25C567.1 83.74 565.75 81.26 565.48 79.75C565.22 78.24 564.77 77 564.5 77C564.23 77 561.64 79.15 558.75 81.77C555.64 84.6 551.87 86.97 549.5 87.6C547.13 88.22 544.28 88.31 542.5 87.82C540.85 87.36 538.6 86.06 535.5 82.88L530 85.55C526.93 87.05 522.73 88.25 520.5 88.27C518.3 88.29 515.04 87.56 513.25 86.65C511.46 85.74 510 84.55 510 84C510 83.45 508.09 83.96 505.75 85.14C503.41 86.32 500.26 87.67 498.75 88.14C496.42 88.87 495.54 88.54 490 83L485.25 85.52C482.64 86.9 479.04 88.03 477.25 88.02C475.2 88.01 473.64 87.35 473.03 86.25C472.5 85.29 471.71 83.93 471.28 83.22C470.68 82.25 469.34 82.58 465.5 84.66C462.75 86.16 458.93 87.7 457 88.09C455.07 88.48 452.15 88.42 450.5 87.96C448.85 87.49 446.26 85.96 442 82L435.75 85.1C432.31 86.81 428.3 88.27 426.82 88.35C425.18 88.44 423.15 87.53 421.55 86C420.12 84.63 418.96 82.94 418.97 82.25C418.99 81.46 417.05 82.07 413.75 83.88C410.86 85.46 406.81 87.26 404.75 87.88C401.39 88.88 400.82 88.78 399.25 86.89C397.88 85.23 397.5 82.89 397.5 75.98C397.5 71.14 397.27 67.4 397 67.67C396.73 67.94 394.25 72.51 391.5 77.83C388.38 83.87 385.84 87.59 384.75 87.75C383.79 87.89 382.26 87.44 381.36 86.75C379.96 85.68 379.82 84.14 380.38 76C380.74 70.78 381.59 64.07 382.27 61.11C382.95 58.14 384.18 55.26 385 54.71C385.82 54.15 387.29 53.99 388.25 54.35C389.77 54.91 389.93 55.99 389.5 62.5C389.23 66.63 389.23 70 389.5 70C389.77 70 391.4 67.19 393.11 63.75C394.82 60.31 396.82 56.71 397.54 55.75C398.27 54.79 400.02 54 401.43 54C403.17 54 404.28 54.73 404.87 56.25C405.42 57.65 405.23 61.72 404.37 67C403.61 71.67 403.22 76.74 403.5 78.25C403.87 80.3 404.57 80.99 406.25 80.96C407.49 80.94 410.23 79.7 416.19 75.5L416.5 55.12L412 54.3C409.05 53.76 407.5 52.97 407.5 51.99C407.5 50.89 408.88 50.43 418 50L419.06 45.25C419.64 42.64 421.25 38.02 422.62 35C423.99 31.98 426.11 28.48 427.31 27.22C428.51 25.97 430.51 24.96 431.75 24.97C433.02 24.99 434.88 26.19 436.03 27.75C437.31 29.47 438.06 32 438.03 34.5C438.01 36.82 436.74 41.12 432 51L435.25 51.51C437.04 51.79 439.74 52.02 441.25 52.01C443.31 52 443.93 52.44 443.74 53.75C443.52 55.22 442.23 55.54 435.74 55.75C428.55 55.98 427.87 56.19 426.12 58.75C424.97 60.44 423.99 64.2 423.59 68.5C423.14 73.41 423.33 76.25 424.25 78C425.12 79.67 426.53 80.59 428.52 80.78C430.24 80.94 433.41 80.03 436 78.63C440.13 76.41 440.56 75.8 441.24 71.35C441.64 68.68 442.99 64.5 444.24 62.05C445.48 59.6 447.85 56.79 449.5 55.8C451.15 54.82 453.96 54.01 455.75 54C458.03 54 459.89 54.89 462 57C464.46 59.46 464.91 60.59 464.47 63.25C464.18 65.04 462.67 68.08 461.11 70C459.55 71.92 456.43 74.4 454.18 75.5C451.93 76.6 450.07 78.06 450.05 78.75C450.02 79.44 451.01 80.51 452.25 81.14C454.01 82.03 455.48 81.94 459 80.7C461.48 79.82 464.52 78.3 465.77 77.3C467.79 75.7 468.09 74.43 468.44 66C468.66 60.5 469.71 53.45 470.91 49.25C472.06 45.26 474.27 39.19 475.82 35.75C477.37 32.31 480.07 27.77 481.83 25.65C483.59 23.53 486.03 21.42 487.26 20.96C488.49 20.5 490.06 20.1 490.75 20.06ZM479.7 42.5C478.89 45.25 477.94 50.2 477.58 53.5L476.94 59.5C482.25 49.42 484.74 43.69 485.9 40.25C487.05 36.81 488 32.88 488 31.5C488 30.13 487.57 29 487.03 29C486.5 29 484.97 30.91 483.62 33.25C482.27 35.59 480.51 39.75 479.7 42.5ZM501.72 35.5C500.88 37.15 499.52 41.2 498.7 44.5C497.88 47.8 496.94 52.41 496.6 54.75C496.27 57.09 496.23 59 496.5 59C496.77 59 498.77 55.29 500.93 50.75C503.09 46.21 505.37 40.48 506.01 38C506.64 35.52 506.99 32.42 506.79 31.1C506.44 28.78 506.38 28.76 504.83 30.6C503.96 31.65 502.56 33.85 501.72 35.5ZM426.08 42.75C424.54 48.12 424.32 50.01 425.25 50.03C425.94 50.04 427.73 47.68 429.23 44.78C430.74 41.88 432.14 38.04 432.36 36.25C432.62 34.09 432.33 33 431.49 33C430.79 33 429.76 33.56 429.19 34.25C428.62 34.94 427.22 38.76 426.08 42.75ZM573.6 42C572.71 45.02 571.98 48.06 571.99 48.75C572 49.44 572.45 50 573 50C573.55 50 575.35 47.3 577 44C578.65 40.7 580 36.88 580 35.5C580 33.97 579.43 33 578.53 33C577.72 33 576.64 33.79 576.13 34.75C575.63 35.71 574.49 38.98 573.6 42ZM477.47 74C477.14 75.47 477.53 77.33 478.41 78.5C479.91 80.5 479.92 80.5 483.71 78.36L487.5 76.21C487.04 65.59 487.36 60.1 487.91 57.17C488.46 54.24 488.8 51.69 488.65 51.51C488.51 51.32 486.06 55.74 483.21 61.34C480.36 66.93 477.77 72.63 477.47 74ZM449.75 66.97C449.06 69.16 448.84 71.18 449.25 71.47C449.66 71.76 451.35 71.33 453 70.5C454.65 69.67 456.45 68.1 457 67C457.55 65.9 457.89 64.02 457.75 62.83C457.61 61.63 457.04 60.51 456.47 60.32C455.9 60.14 454.44 60.67 453.22 61.49C452 62.32 450.44 64.79 449.75 66.97ZM515.75 66.97C515.06 69.16 514.84 71.18 515.25 71.47C515.66 71.76 517.35 71.33 519 70.5C520.65 69.67 522.45 68.1 523 67C523.55 65.9 523.89 64.02 523.75 62.83C523.61 61.63 523.04 60.51 522.47 60.32C521.9 60.14 520.44 60.67 519.22 61.49C518 62.32 516.44 64.79 515.75 66.97ZM154.5 24.35C159.49 24.67 160.88 25.17 162.75 27.36C163.99 28.81 165.27 31.46 165.6 33.25C165.98 35.27 165.23 40.49 163.63 47C162.22 52.78 161.16 57.57 161.28 57.65C161.4 57.73 165.67 57.5 170.76 57.15C177.15 56.7 180.01 56.11 180.01 55.25C180 54.56 182.01 48.49 184.47 41.75C186.92 35.01 189.73 28.93 190.72 28.23C191.7 27.54 193.06 26.97 193.75 26.98C194.44 26.99 195.45 27.9 196 29C196.77 30.54 196.07 33.72 192.98 42.75C190.78 49.21 188.98 54.84 188.98 55.25C188.99 55.66 191.25 56 194 56C196.99 56 199.26 56.5 199.65 57.25C200.01 57.94 199.45 59.07 198.4 59.77C197.36 60.46 194.36 61.03 191.75 61.02C187.1 61 186.98 61.08 186.02 64.75C185.48 66.81 184.75 70.53 184.39 73C184.02 75.47 183.98 78.63 184.29 80C184.6 81.38 185.67 82.78 186.68 83.13C187.68 83.47 189.85 83.21 191.5 82.54C193.15 81.88 196.19 79.91 198.25 78.17C200.72 76.08 202.14 75.43 202.42 76.25C202.65 76.94 202.87 75.25 202.9 72.5C202.94 69.29 203.8 65.89 205.3 63C206.79 60.14 209.08 57.69 211.58 56.27C213.84 54.98 217.19 54.04 219.5 54.04C221.7 54.04 225.3 54.87 227.5 55.89C229.7 56.91 232.63 58.93 234 60.39C235.38 61.86 236.84 63.04 237.25 63.03C237.66 63.01 238 62.33 238 61.5C238 60.67 238.68 58.65 239.5 57C240.67 54.67 241.67 54 244 54C246.35 54 246.91 54.38 246.58 55.75C246.35 56.71 245.38 62 244.43 67.5C243.47 73 242.99 78.29 243.35 79.25C243.71 80.21 244.9 81 246 81C247.1 81 248.63 79.99 249.41 78.75C250.19 77.51 251.79 71.78 252.96 66C254.14 60.22 255.31 55.16 255.55 54.75C255.8 54.34 257.35 54 259 54C260.65 54 262.18 54.34 262.4 54.75C262.62 55.16 261.89 60.45 260.77 66.5C259.65 72.55 259.02 78.29 259.37 79.25C259.71 80.21 261.01 81.01 262.25 81.03C263.76 81.05 266.82 78.65 271.5 73.78C275.35 69.77 280.64 63.69 283.25 60.25C287.22 55.03 288.49 54 291 54C292.96 54 294.22 54.61 294.62 55.75C294.98 56.79 294.37 58.62 293.12 60.25C291.18 62.76 291.06 63.73 291.75 71.51C292.16 76.19 292.61 80.01 292.75 80.01C292.89 80 294.69 79.15 296.75 78.12C300.02 76.48 300.57 75.69 301.07 71.87C301.39 69.47 302.74 65.31 304.07 62.62C305.41 59.94 307.85 56.92 309.5 55.9C311.15 54.89 313.96 54.05 315.75 54.03C318.05 54.01 319.87 54.87 322 57C324.46 59.46 324.91 60.59 324.47 63.25C324.18 65.04 322.67 68.08 321.11 70C319.55 71.92 316.43 74.4 314.18 75.5C311.93 76.6 310.07 78.06 310.05 78.75C310.02 79.44 311.01 80.51 312.25 81.12C313.87 81.93 315.48 81.95 318 81.19C319.93 80.6 323.86 78.52 332 73L333.5 75.5C334.94 77.9 334.85 78.12 331.25 81.01C329.19 82.67 325.93 84.76 324 85.67C322.07 86.58 318.93 87.66 317 88.06C315.07 88.47 312.15 88.42 310.5 87.94C308.85 87.47 306.49 85.94 303 82L297.75 84.47C294.86 85.83 289.8 87.47 286.5 88.11C281.99 88.98 279.57 88.99 276.75 88.14C274.69 87.51 272.57 86.21 272.04 85.25C271.13 83.61 270.78 83.64 266.29 85.72C263.65 86.94 260.38 87.97 259 88C257.63 88.04 255.78 87.26 254.9 86.28C254.02 85.3 253.01 83.71 252.65 82.75C252.08 81.22 251.49 81.44 248 84.5C245.8 86.42 243.55 88 243 88C242.45 88 241.32 88.22 240.5 88.5C239.68 88.78 238.1 88.1 237 87C235.55 85.55 235.01 83.69 235.02 80.25C235.04 77.64 235.49 73.81 236.02 71.75C236.98 68.07 236.91 67.92 232.25 64.06C229.64 61.89 227.16 60.32 226.75 60.56C226.34 60.8 226.45 61.9 227 63C227.55 64.1 228 67.47 228 70.5C228 74 227.27 77.45 226 80C224.9 82.2 222.76 84.83 221.25 85.85C219.74 86.86 217.38 87.96 216 88.29C214.63 88.62 212.04 88.23 210.25 87.44C208.46 86.65 206.21 84.86 203.5 80.92L201 83.3C199.63 84.61 197.15 86.6 195.5 87.73C193.85 88.85 190.7 90.34 188.5 91.04C185.2 92.08 183.92 92.06 181.16 90.9C179.32 90.13 177.25 88.6 176.56 87.5C175.88 86.4 175.02 84.26 174.66 82.75C174.3 81.24 174.69 76.29 175.53 71.75C176.37 67.21 176.79 63.28 176.46 63C176.14 62.73 172.02 62.95 158.76 64.5L154.87 75.5C152.73 81.55 150.31 87.51 149.49 88.75C148.67 89.99 147.32 91.34 146.5 91.75C145.55 92.22 144.29 91.76 143.07 90.5C141.32 88.68 141.26 88.09 142.42 84C143.13 81.53 144.9 76.24 149 65L145.25 64.55C143.06 64.28 140.63 63.14 139.4 61.8C138.24 60.53 137.01 58.71 136.65 57.75C136.29 56.79 136.45 55.77 137 55.5C137.55 55.23 138.56 55.7 139.25 56.54C140.11 57.6 142.24 58.09 151.5 58.07L154.29 50.78C155.82 46.78 157.17 41.43 157.29 38.9C157.42 36 156.95 33.65 156 32.54C154.84 31.18 153.58 30.9 150.5 31.35C148.28 31.67 144.28 33.49 136.5 38.98L136.22 36.24C136.06 34.73 136.72 32.49 137.68 31.26C138.63 30.03 141.46 27.89 143.96 26.5C147.73 24.41 149.52 24.04 154.5 24.35ZM309.75 66.97C309.06 69.16 308.84 71.18 309.25 71.47C309.66 71.76 311.35 71.33 313 70.5C314.65 69.67 316.45 68.1 317 67C317.55 65.9 317.89 64.02 317.75 62.83C317.61 61.63 317.04 60.51 316.47 60.32C315.9 60.14 314.44 60.67 313.22 61.49C312 62.32 310.44 64.79 309.75 66.97ZM211.29 73.25C211.02 79.57 211.16 80.08 213.48 81.25C215.62 82.33 216.23 82.23 218 80.5C219.13 79.4 220.56 76.25 221.18 73.5C221.94 70.17 222 67.33 221.38 65C220.65 62.3 219.85 61.43 217.87 61.2C215.98 60.98 214.82 61.63 213.44 63.7C212.19 65.58 211.48 68.71 211.29 73.25ZM278.94 74.23C276.54 76.62 274.67 79.12 274.79 79.79C274.9 80.45 276.01 81.5 277.25 82.1C278.49 82.71 280.51 82.93 281.75 82.6C283.07 82.25 284.14 81.07 284.35 79.75C284.54 78.51 284.39 75.79 284.01 73.69L283.32 69.89L278.94 74.23ZM374.25 27.07C377.41 27.03 381.13 27.45 382.5 28C384 28.6 385 29.8 385 31C385 32.1 384.32 33.23 383.5 33.5C382.68 33.77 380.43 34 375 34L371.89 47.75C370.18 55.31 367.59 66.51 363.5 83.77L367.25 84.39C369.31 84.72 371.34 85.71 371.75 86.59C372.22 87.58 371.94 88.51 371 89.07C370.18 89.57 363.31 89.98 355.75 89.98C347.24 89.99 342 89.62 342 89C342 88.45 342.68 87.33 343.5 86.5C344.32 85.67 346.01 84.79 347.25 84.54C348.49 84.29 350.4 83.94 351.5 83.78C353.22 83.53 354.3 80.42 359.2 61.49C362.34 49.4 365.15 38.49 365.45 37.25C365.8 35.83 365.54 34.99 364.75 34.98C364.06 34.97 361.59 35.64 359.25 36.48C355.06 37.98 355 37.97 354.97 35.75C354.95 34.51 355.91 32.6 357.1 31.5C358.3 30.4 361.35 28.97 363.89 28.32C366.42 27.67 371.09 27.1 374.25 27.07Z" />
		<path id="Path 2" class="shp0" d="M10.09 91.39C8.22 92.13 5.63 94.14 4.34 95.87C3.05 97.59 1.55 100.69 1.01 102.75C0.46 104.81 -0.01 108.75 -0.04 111.5C-0.07 114.36 0.47 117.02 1.21 117.72C2.2 118.66 15.56 118.9 58.96 118.72L115.42 118.5C118.36 113.29 118.34 112.42 116.73 106.27C115.76 102.55 114.13 98.38 113.11 97C112.09 95.63 110.04 93.6 108.56 92.5C105.96 90.58 104.1 90.49 59.68 90.27C22.96 90.09 12.8 90.32 10.09 91.39Z" />
	</g>
</svg>